Coordinates
version=1
nRows=14
nColumns=46
inDegrees=yes

Units are S.I. units (second, meters, Newtons, ...)
Angles are in degrees.

endheader
time	pelvis_tilt	pelvis_list	pelvis_rotation	pelvis_tx	pelvis_ty	pelvis_tz	bb_angle	bb_tx	bb_ty	bb_tz	hip_flexion_r	hip_adduction_r	hip_rotation_r	knee_angle_r	knee_angle_r_beta	ankle_angle_r	subtalar_angle_r	mtp_angle_r	crank_angle_r	hip_flexion_l	hip_adduction_l	hip_rotation_l	knee_angle_l	knee_angle_l_beta	ankle_angle_l	subtalar_angle_l	mtp_angle_l	crank_angle_l	lumbar_extension	lumbar_bending	lumbar_rotation	arm_flex_r	arm_add_r	arm_rot_r	elbow_flex_r	pro_sup_r	wrist_flex_r	wrist_dev_r	arm_flex_l	arm_add_l	arm_rot_l	elbow_flex_l	pro_sup_l	wrist_flex_l	wrist_dev_l
      5.00500000	    -19.45181496	      3.94847390	      4.84382790	      0.08333944	      1.11256075	     -0.25737857	      0.00000000	      0.50000000	      0.00000000	      0.25000000	     40.50486519	     -9.27397779	     -3.35455357	     36.04106628	      0.62903527	    -10.81264134	     -8.43148243	      0.00000000	      0.00000000	     95.86067634	      5.50166737	      5.42929105	    108.92822059	      1.90115610	      0.46633113	    -12.85792361	      0.00000000	      0.00000000	    -63.90896940	     -3.33481684	    -15.45148612	     88.81234943	    -29.15084823	     35.48365078	     69.89907606	     36.31212172	      0.00000000	      0.00000000	     89.43184888	    -44.89173624	     33.89034802	     95.57680553	     44.17128581	      0.00000000	      0.00000000
      5.01000000	    -19.55422775	      4.07245516	      5.30769209	      0.08306432	      1.11338652	     -0.25790663	      0.00000000	      0.50000000	      0.00000000	      0.25000000	     41.58985353	     -9.64481188	     -3.07109467	     38.93110717	      0.67947600	    -11.12030878	     -9.86264820	      0.00000000	      0.00000000	     95.04938632	      5.70433347	      5.00653490	    107.20928333	      1.87115498	      2.59872053	    -12.81587803	      0.00000000	      0.00000000	    -63.99755833	     -3.15332611	    -15.59975654	     88.80815862	    -29.68158375	     35.43699725	     69.84740814	     36.36938358	      0.00000000	      0.00000000	     89.44639062	    -44.53177677	     33.79020515	     95.61990511	     44.02691410	      0.00000000	      0.00000000
      5.01500000	    -19.62915401	      4.09138394	      5.73987497	      0.08291201	      1.11410933	     -0.25832438	      0.00000000	      0.50000000	      0.00000000	      0.25000000	     42.77895963	     -9.89993354	     -2.72580346	     41.97760637	      0.73264744	    -11.65929238	    -11.17489817	      0.00000000	      0.00000000	     94.10109062	      5.83470514	      4.70388233	    105.34611099	      1.83863649	      4.71545802	    -12.68912966	      0.00000000	      0.00000000	    -64.12889000	     -2.88518670	    -15.63599809	     88.82216226	    -30.14238129	     35.40682074	     69.82896035	     36.42095122	      0.00000000	      0.00000000	     89.46009658	    -44.22920922	     33.73025092	     95.66680776	     43.91137788	      0.00000000	      0.00000000
      5.02000000	    -19.73599992	      4.20751569	      6.10621985	      0.08275332	      1.11474760	     -0.25853151	      0.00000000	      0.50000000	      0.00000000	      0.25000000	     44.13970847	    -10.14263465	     -2.08927282	     45.12460264	      0.78757289	    -12.39561633	    -12.27330686	      0.00000000	      0.00000000	     93.04585856	      5.86593713	      4.32255779	    103.28508196	      1.80266475	      6.80496561	    -12.21640532	      0.00000000	      0.00000000	    -64.18183879	     -2.80746514	    -15.65791101	     88.75622044	    -30.74284632	     35.43951388	     69.87336711	     36.53115487	      0.00000000	      0.00000000	     89.46924367	    -43.64955980	     33.75723988	     95.63733489	     43.70038604	      0.00000000	      0.00000000
      5.02500000	    -19.69781901	      4.04443808	      6.46395735	      0.08268643	      1.11522926	     -0.25878928	      0.00000000	      0.50000000	      0.00000000	      0.25000000	     45.36989677	    -10.11943718	     -1.53738307	     48.29795476	      0.84295833	    -13.13848338	    -13.08827699	      0.00000000	      0.00000000	     91.82881000	      5.86722432	      4.19715616	    101.14328590	      1.76528336	      8.56030259	    -12.13176177	      0.00000000	      0.00000000	    -64.32345402	     -2.59851897	    -14.58052478	     88.70371287	    -32.92945157	     35.91006768	     70.79624296	     37.37283539	      0.00000000	      0.00000000	     89.49338996	    -41.71101460	     33.89130262	     95.02312825	     42.27201887	      0.00000000	      0.00000000
      5.03000000	    -19.47083137	      3.57018835	      6.84787468	      0.08278346	      1.11566449	     -0.25900214	      0.00000000	      0.50000000	      0.00000000	      0.25000000	     46.37208534	     -9.83713427	     -1.20585223	     51.39192901	      0.89695837	    -13.91703430	    -13.54409998	      0.00000000	      0.00000000	     90.44883599	      5.79707084	      4.32365928	     98.95568507	      1.72710252	      9.83283928	    -12.45363485	      0.00000000	      0.00000000	    -64.54720473	     -1.98813594	    -14.18908077	     88.75061201	    -32.92417384	     35.87370834	     70.72383744	     37.37983536	      0.00000000	      0.00000000	     89.48001966	    -41.72205810	     33.91630170	     95.10745678	     42.24474215	      0.00000000	      0.00000000
      5.03500000	    -19.45264488	      3.72014987	      7.30947875	      0.08283621	      1.11602069	     -0.25937237	      0.00000000	      0.50000000	      0.00000000	      0.25000000	     47.72866326	    -10.18759903	     -0.61389285	     54.63531675	      0.95356617	    -14.67233968	    -14.31844188	      0.00000000	      0.00000000	     89.05513018	      5.91448059	      3.80976164	     96.42126161	      1.68286848	     11.01521531	    -12.55502601	      0.00000000	      0.00000000	    -64.66362369	     -1.80478727	    -14.38250138	     88.68329984	    -33.23187454	     35.69508514	     70.66101489	     37.42525943	      0.00000000	      0.00000000	     89.48741485	    -41.41123742	     34.14324593	     95.16931103	     42.14064589	      0.00000000	      0.00000000
      5.04000000	    -19.31101517	      3.54951355	      7.60622859	      0.08286298	      1.11611365	     -0.25959567	      0.00000000	      0.50000000	      0.00000000	      0.25000000	     48.96037495	    -10.13150736	     -0.06037429	     57.75800845	      1.00806742	    -15.43022009	    -14.51028998	      0.00000000	      0.00000000	     87.66255753	      5.78987254	      3.54635058	     93.97109080	      1.64010494	     11.75539432	    -12.75046743	      0.00000000	      0.00000000	    -64.78430137	     -1.48544742	    -14.17282319	     88.63451218	    -33.41289508	     35.64995959	     70.71784214	     37.52653045	      0.00000000	      0.00000000	     89.48156179	    -41.15329824	     34.31163839	     95.11189038	     41.97185411	      0.00000000	      0.00000000
      5.04500000	    -19.06595109	      3.12260594	      7.86749456	      0.08285807	      1.11595383	     -0.25986296	      0.00000000	      0.50000000	      0.00000000	      0.25000000	     50.08237975	     -9.86794358	      0.24512227	     60.82352439	      1.06157076	    -16.12634215	    -14.54174332	      0.00000000	      0.00000000	     86.26532882	      5.59296240	      3.52696873	     91.57114932	      1.59821806	     12.38369880	    -12.64078178	      0.00000000	      0.00000000	    -64.92693370	     -1.00075381	    -13.77198866	     88.66570649	    -33.42344504	     35.62656137	     70.75172296	     37.56882741	      0.00000000	      0.00000000	     89.46320344	    -41.06609766	     34.37717696	     95.12270742	     41.91347101	      0.00000000	      0.00000000
      5.05000000	    -18.87843419	      2.94790702	      8.17288393	      0.08279360	      1.11570292	     -0.25997575	      0.00000000	      0.50000000	      0.00000000	      0.25000000	     51.28434296	     -9.84604892	      0.66440437	     63.82022238	      1.11387301	    -16.81399714	    -14.47748337	      0.00000000	      0.00000000	     84.83514213	      5.53354391	      3.35436919	     89.04784282	      1.55417805	     12.79806921	    -12.38368443	      0.00000000	      0.00000000	    -65.02984952	     -0.66442733	    -13.58538454	     88.62111771	    -33.50663553	     35.54266893	     70.83655332	     37.62954282	      0.00000000	      0.00000000	     89.45415759	    -40.86065786	     34.51026759	     95.07398733	     41.83338335	      0.00000000	      0.00000000
      5.05500000	    -18.54680126	      2.25258857	      8.27934021	      0.08284352	      1.11557406	     -0.25973249	      0.00000000	      0.50000000	      0.00000000	      0.25000000	     52.20721658	     -9.19352205	      0.84815612	     66.46573452	      1.16004591	    -17.51709716	    -14.20471448	      0.00000000	      0.00000000	     83.37165079	      5.07785516	      3.64641250	     86.61434005	      1.51170541	     12.81457371	    -12.27663061	      0.00000000	      0.00000000	    -65.15927684	     -0.20212855	    -12.95121606	     88.48866366	    -33.33117526	     35.62391079	     70.84966872	     37.64936431	      0.00000000	      0.00000000	     89.42715798	    -40.91777981	     34.48279144	     95.10422993	     41.82057320	      0.00000000	      0.00000000
      5.06000000	    -18.42104127	      2.46780096	      8.48609877	      0.08253298	      1.11452879	     -0.26005925	      0.00000000	      0.50000000	      0.00000000	      0.25000000	     53.68357157	     -9.50093911	      1.59332637	     69.61691436	      1.21504437	    -17.85731458	    -13.18917097	      0.00000000	      0.00000000	     82.06337442	      5.04071154	      3.02553089	     84.19703166	      1.46951542	     12.55166325	    -12.28029298	      0.00000000	      0.00000000	    -65.19323940	     -0.15586728	    -12.92773560	     88.46183830	    -33.69607654	     35.37032538	     71.11913586	     37.81847280	      0.00000000	      0.00000000	     89.42583140	    -40.37272738	     34.66200975	     94.77421542	     41.59286801	      0.00000000	      0.00000000
      5.06500000	    -18.08676349	      1.76722929	      8.52409413	      0.08254581	      1.11384742	     -0.25977025	      0.00000000	      0.50000000	      0.00000000	      0.25000000	     54.65639210	     -8.86202892	      1.62220042	     72.14388357	      1.25914830	    -18.53842103	    -12.88592483	      0.00000000	      0.00000000	     80.69029108	      4.48705919	      3.35012608	     81.91665965	      1.42971542	     12.33655935	    -11.94022334	      0.00000000	      0.00000000	    -65.29040230	      0.26321942	    -12.28544210	     88.34515942	    -33.53831939	     35.44656045	     71.11921704	     37.83583310	      0.00000000	      0.00000000	     89.39348123	    -40.45736144	     34.60554733	     94.80162420	     41.58031921	      0.00000000	      0.00000000
      5.07000000	    -18.01595103	      1.68425194	      8.57531508	      0.08230969	      1.11235246	     -0.25978130	      0.00000000	      0.50000000	      0.00000000	      0.25000000	     56.13820055	     -8.80905118	      2.16798702	     74.94329807	      1.30800730	    -19.08223128	    -11.92768242	      0.00000000	      0.00000000	     79.57610621	      4.12603942	      3.04018999	     79.69730769	      1.39098042	     11.93202286	    -10.95881258	      0.00000000	      0.00000000	    -65.18038228	      0.32552593	    -11.99020556	     88.37591705	    -33.78198341	     35.24214723	     71.19752514	     37.91511456	      0.00000000	      0.00000000	     89.37354553	    -40.11493723	     34.66863599	     94.62051131	     41.46969232	      0.00000000	      0.00000000
